HIERARCHY
ROOT Hips
{
	OFFSET 0.00000 0.00000 0.00000
	CHANNELS 6 Xposition Yposition Zposition Zrotation Yrotation Xrotation 
	JOINT LHipJoint
	{
		OFFSET 0 0 0
		CHANNELS 3 Zrotation Yrotation Xrotation
		JOINT LeftUpLeg
		{
			OFFSET 1.35324 -1.81393 0.86676
			CHANNELS 3 Zrotation Yrotation Xrotation
			JOINT LeftLeg
			{
				OFFSET 2.44396 -6.71474 0.00000
				CHANNELS 3 Zrotation Yrotation Xrotation
				JOINT LeftFoot
				{
					OFFSET 2.78389 -7.64869 0.00000
					CHANNELS 3 Zrotation Yrotation Xrotation
					JOINT LeftToeBase
					{
						OFFSET 0.15837 -0.43512 1.94704
						CHANNELS 3 Zrotation Yrotation Xrotation
						End Site
						{
							OFFSET 0.00000 -0.00000 1.00735
						}
					}
				}
			}
		}
	}
	JOINT RHipJoint
	{
		OFFSET 0 0 0
		CHANNELS 3 Zrotation Yrotation Xrotation
		JOINT RightUpLeg
		{
			OFFSET -1.14956 -1.81393 0.86676
			CHANNELS 3 Zrotation Yrotation Xrotation
			JOINT RightLeg
			{
				OFFSET -2.55632 -7.02343 0.00000
				CHANNELS 3 Zrotation Yrotation Xrotation
				JOINT RightFoot
				{
					OFFSET -2.63038 -7.22691 0.00000
					CHANNELS 3 Zrotation Yrotation Xrotation
					JOINT RightToeBase
					{
						OFFSET -0.22277 -0.61205 2.06087
						CHANNELS 3 Zrotation Yrotation Xrotation
						End Site
						{
							OFFSET -0.00000 -0.00000 1.07867
						}
					}
				}
			}
		}
	}
	JOINT LowerBack
	{
		OFFSET 0 0 0
		CHANNELS 3 Zrotation Yrotation Xrotation
		JOINT Spine
		{
			OFFSET -0.05682 2.18266 -0.21665
			CHANNELS 3 Zrotation Yrotation Xrotation
			JOINT Spine1
			{
				OFFSET 0.08791 2.18267 0.00700
				CHANNELS 3 Zrotation Yrotation Xrotation
				JOINT Neck
				{
					OFFSET 0 0 0
					CHANNELS 3 Zrotation Yrotation Xrotation
					JOINT Neck1
					{
						OFFSET -0.14851 1.58495 0.25390
						CHANNELS 3 Zrotation Yrotation Xrotation
						JOINT Head
						{
							OFFSET 0.13566 1.62237 -0.28476
							CHANNELS 3 Zrotation Yrotation Xrotation
							End Site
							{
								OFFSET 0.05601 1.65818 -0.12921
							}
						}
					}
				}
				JOINT LeftShoulder
				{
					OFFSET 0 0 0
					CHANNELS 3 Zrotation Yrotation Xrotation
					JOINT LeftArm
					{
						OFFSET 3.23337 0.97114 -0.51072
						CHANNELS 3 Zrotation Yrotation Xrotation
						JOINT LeftForeArm
						{
							OFFSET 5.19964 -0.00068 -0.00051
							CHANNELS 3 Zrotation Yrotation Xrotation
							JOINT LeftHand
							{
								OFFSET 3.32189 -0.00000 0.00000
								CHANNELS 3 Zrotation Yrotation Xrotation
								JOINT LeftFingerBase
								{
									OFFSET 0 0 0
									CHANNELS 3 Zrotation Yrotation Xrotation
									JOINT LeftHandIndex1
									{
										OFFSET 0.64562 -0.00000 0.00000
										CHANNELS 3 Zrotation Yrotation Xrotation
										End Site
										{
											OFFSET 0.52051 -0.00000 0.00000
										}
									}
								}
								JOINT LThumb
								{
									OFFSET 0 0 0
									CHANNELS 3 Zrotation Yrotation Xrotation
									End Site
									{
										OFFSET 0.52846 -0.00000 0.52846
									}
								}
							}
						}
					}
				}
				JOINT RightShoulder
				{
					OFFSET 0 0 0
					CHANNELS 3 Zrotation Yrotation Xrotation
					JOINT RightArm
					{
						OFFSET -2.95712 1.24697 -0.52388
						CHANNELS 3 Zrotation Yrotation Xrotation
						JOINT RightForeArm
						{
							OFFSET -5.65950 -0.00000 -0.00000
							CHANNELS 3 Zrotation Yrotation Xrotation
							JOINT RightHand
							{
								OFFSET -3.37604 -0.00000 -0.00000
								CHANNELS 3 Zrotation Yrotation Xrotation
								JOINT RightFingerBase
								{
									OFFSET 0 0 0
									CHANNELS 3 Zrotation Yrotation Xrotation
									JOINT RightHandIndex1
									{
										OFFSET -0.82470 -0.00000 -0.00000
										CHANNELS 3 Zrotation Yrotation Xrotation
										End Site
										{
											OFFSET -0.66490 -0.00000 -0.00000
										}
									}
								}
								JOINT RThumb
								{
									OFFSET 0 0 0
									CHANNELS 3 Zrotation Yrotation Xrotation
									End Site
									{
										OFFSET -0.67505 -0.00000 0.67505
									}
								}
							}
						}
					}
				}
			}
		}
	}
}
MOTION
Frames: 7
Frame Time: .0083333
9.2020 17.7872 -32.9229 -9.8668 -51.2677 21.3887 0.0000 0.0000 0.0000 -15.1672 -14.2137 -32.4524 6.5806 14.9683 47.2696 1.3018 -3.6594 -20.6741 0.0004 0.1247 0.3427 0.0000 0.0000 0.0000 14.2207 11.1549 -10.8241 -6.2336 -14.6510 45.9122 -0.0474 0.8913 4.5443 -0.0860 -1.8915 5.2059 -3.8951 -1.2752 8.9715 4.8266 -1.9389 1.3570 7.5127 -0.9239 -3.3199 -11.9500 3.9627 -13.2447 7.8537 6.2193 23.3762 5.3727 2.6468 8.8214 0.0000 0.0000 0.0000 -88.5395 -8.9292 -0.2095 15.4176 -24.7247 -3.3987 -0.0000 -0.0000 5.0150 3.1087 32.4758 1.6704 -7.1250 0.0000 -0.0000 -32.9173 59.3350 -12.3449 0.0000 0.0000 0.0000 76.7376 -1.3057 12.2168 -26.3182 37.5212 -9.0807 0.0000 -0.0000 -19.0213 -12.2685 16.8746 -3.6119 7.1250 -0.0000 -0.0000 10.3339 -12.9382 7.8901
9.1442 17.7852 -32.7385 -9.8406 -51.8595 21.2144 0.0000 0.0000 0.0000 -15.8950 -14.4159 -31.3677 6.5337 14.9264 47.0880 1.3834 -3.0913 -21.4390 0.0028 -0.3441 -0.9454 0.0000 0.0000 0.0000 13.5611 11.6693 -11.0957 -6.4950 -14.8914 46.9374 -0.1400 0.1844 7.1370 -0.2167 -2.9970 8.2705 -4.2410 -1.1827 9.0656 4.7973 -1.8523 1.3841 7.6764 -0.8764 -3.3472 -12.0172 4.0498 -12.8427 7.9103 6.2960 22.9485 5.3713 2.6977 8.5866 -0.0000 -0.0000 0.0000 -88.3936 -8.9654 -0.5644 15.3263 -24.5987 -3.3606 -0.0000 -0.0000 5.1915 3.8985 31.6438 2.0476 -7.1250 0.0000 -0.0000 -31.3702 58.8145 -11.2908 -0.0000 -0.0000 0.0000 76.7164 -1.4722 12.2502 -26.3777 37.5792 -9.1170 0.0000 -0.0000 -19.0933 -12.3602 16.8767 -3.6401 7.1250 -0.0000 -0.0000 10.2733 -12.9282 7.8444
9.0944 17.7829 -32.5757 -9.7264 -52.0862 21.1315 0.0000 0.0000 0.0000 -16.4724 -14.4578 -30.6992 6.4921 14.8889 46.9263 1.4409 -3.7740 -21.7757 0.0749 1.7653 4.8575 0.0000 0.0000 0.0000 13.0075 12.1055 -11.6507 -6.8175 -15.1763 48.1808 -0.2156 -0.0004 8.7706 -0.2685 -3.3330 9.2073 -4.0734 -0.9633 8.8614 4.4618 -1.5514 1.5815 7.1699 -0.7420 -3.0899 -12.1255 3.7987 -12.4578 8.4540 5.8184 22.1938 5.4852 2.5503 8.2842 -0.0000 -0.0000 0.0000 -87.6267 -9.5720 0.2228 15.1079 -24.2962 -3.2702 -0.0000 -0.0000 5.0210 4.1313 31.3649 2.1530 -7.1250 0.0000 -0.0000 -30.8918 58.6296 -10.9568 -0.0000 -0.0000 0.0000 77.4807 -1.4312 11.1215 -26.5098 37.7077 -9.1977 0.0000 -0.0000 -18.9909 -12.3086 16.8353 -3.6159 7.1250 -0.0000 -0.0000 10.3073 -12.9741 7.8612
9.0465 17.7779 -32.4165 -9.3084 -52.2876 20.8913 0.0000 0.0000 0.0000 -17.2304 -14.2019 -30.2669 6.4444 14.8456 46.7402 1.4432 -4.3427 -21.7086 0.1357 2.3739 6.5402 0.0000 0.0000 0.0000 12.2208 12.4742 -12.3930 -7.1745 -15.4771 49.5312 -0.3288 -0.9930 10.5275 -0.5639 -4.8097 13.3666 -4.5271 -0.8854 8.9597 4.3796 -1.4918 1.5063 7.3442 -0.6999 -3.2225 -11.2627 3.8423 -13.1406 8.1132 5.8373 22.7341 5.2813 2.5815 8.6319 -0.0000 -0.0000 0.0000 -87.4257 -9.5193 0.6075 15.1479 -24.3517 -3.2867 -0.0000 -0.0000 4.9223 3.4632 32.0080 1.8372 -7.1250 0.0000 -0.0000 -32.1308 59.0241 -11.7664 -0.0000 -0.0000 0.0000 77.7565 -1.6274 10.7473 -26.6408 37.8345 -9.2779 0.0000 -0.0000 -18.8294 -12.5382 16.8559 -3.6897 7.1250 -0.0000 -0.0000 10.1555 -12.9336 7.7503
8.9977 17.7745 -32.2585 -8.8989 -52.6268 20.6509 0.0000 0.0000 0.0000 -18.0207 -13.7686 -29.8633 6.3915 14.7973 46.5334 1.4056 -4.1968 -21.4331 0.0083 0.5870 1.6131 0.0000 0.0000 0.0000 11.4426 12.9672 -13.2376 -7.5710 -15.7944 51.0022 -0.4474 -1.8735 12.1252 -0.7032 -5.3599 14.9379 -4.9862 -0.7842 9.0384 4.2402 -1.4054 1.4847 7.4548 -0.6477 -3.2947 -8.1025 3.9498 -17.0542 5.9247 6.0724 26.8379 4.3709 2.5824 11.0275 -0.0000 0.0000 0.0000 -87.2790 -9.4857 0.6399 15.3444 -24.6236 -3.3681 -0.0000 -0.0000 5.3518 2.9623 32.3570 1.5864 -7.1250 0.0000 -0.0000 -32.9480 59.2028 -12.2517 -0.0000 0.0000 0.0000 78.0532 -1.7347 10.5222 -26.7203 37.9112 -9.3268 0.0000 -0.0000 -18.7520 -13.1732 16.7764 -3.8649 7.1250 -0.0000 -0.0000 9.7347 -12.9576 7.4142
8.9494 17.7754 -32.1037 -8.5476 -52.9095 20.3722 0.0000 0.0000 0.0000 -18.7566 -13.6654 -29.2280 6.3306 14.7412 46.2944 1.4048 -4.3023 -21.4119 0.0080 0.5784 1.5894 0.0000 0.0000 0.0000 10.8392 13.4173 -14.1065 -7.9811 -16.1054 52.4948 -0.5585 -1.9295 13.5859 -0.4670 -4.3831 12.1571 -5.2044 -0.6523 9.1805 3.9727 -1.2634 1.5342 7.2809 -0.5736 -3.3466 -11.3539 3.7704 -12.6400 8.6149 5.5919 22.2911 5.4069 2.5221 8.3897 -0.0000 0.0000 0.0000 -86.8707 -9.6257 0.6986 15.5336 -24.8843 -3.4474 -0.0000 -0.0000 5.8101 2.7622 32.2958 1.4767 -7.1250 0.0000 -0.0000 -33.0860 59.1066 -12.2326 -0.0000 0.0000 0.0000 78.4953 -1.8066 10.0996 -26.7897 37.9779 -9.3694 0.0000 -0.0000 -18.8081 -13.5488 16.7254 -3.9671 7.1250 -0.0000 -0.0000 9.4852 -12.9752 7.2151
8.9053 17.7800 -31.9637 -7.8720 -52.8494 20.0741 0.0000 0.0000 0.0000 -19.4954 -14.0789 -28.7671 6.2701 14.6851 46.0564 1.4402 -4.6602 -21.6438 0.0710 1.7192 4.7301 0.0000 0.0000 0.0000 10.1398 13.6727 -15.2911 -8.4227 -16.4215 54.0714 -0.6436 -2.3758 14.5301 -0.4570 -4.3365 12.0252 -5.5792 -0.6717 9.2081 3.7230 -1.3323 1.4909 7.2389 -0.5997 -3.3930 -10.6488 3.6800 -13.3105 8.2914 5.4508 22.6595 5.2113 2.4753 8.6892 0.0000 -0.0000 0.0000 -86.3460 -9.8515 0.8332 15.6041 -24.9809 -3.4771 -0.0000 -0.0000 5.9569 2.6565 32.3368 1.4217 -7.1250 0.0000 -0.0000 -33.2280 59.1167 -12.3009 0.0000 -0.0000 0.0000 78.8908 -1.9003 9.9140 -26.9069 38.0903 -9.4416 0.0000 -0.0000 -18.8612 -13.3967 16.8462 -3.9485 7.1250 -0.0000 -0.0000 9.5871 -12.8673 7.3169
